<svg xmlns="http://www.w3.org/2000/svg" xmlns:xlink="http://www.w3.org/1999/xlink" viewBox="0 0 800 185.71" height="185.71" width="800"><defs><style>.cls-1{fill:none;}.cls-2{clip-path:url(#clip-path);}.cls-3{clip-path:url(#clip-path-2);}.cls-4{fill:#323e48;}.cls-5{clip-path:url(#clip-path-3);}.cls-6{fill:url(#linear-gradient);}.cls-7{clip-path:url(#clip-path-4);}.cls-8{fill:url(#linear-gradient-2);}</style><clipPath id="clip-path" transform="translate(0 0)"><rect class="cls-1" width="800" height="185.71"/></clipPath><clipPath id="clip-path-2" transform="translate(0 0)"><rect class="cls-1" width="800" height="185.71"/></clipPath><clipPath id="clip-path-3" transform="translate(0 0)"><path class="cls-1" d="M.93,101.46a1.06,1.06,0,0,0-.93,1v.08a.28.28,0,0,0,0,.09l0,.16c9.66,48.14,37.3,82.91,69.89,82.91,10.37,0,42.82,0,53.65-70.47.2-1.32-1.38-1.83-1.75-.57-5.08,17.31-15.36,45.44-28.47,45.44-9.41,0-20.28-14.49-31.74-57.89a.94.94,0,0,0-.87-.76Zm131.46,0a1,1,0,0,0-.9.93c-3.72,37.09-13.18,64.14-29.48,79a1.16,1.16,0,0,0-.05,1.66,1.23,1.23,0,0,0,.34.26,48.74,48.74,0,0,0,14.52,2.29c32.75,0,60.4-35.38,69.91-83.1a1,1,0,0,0-.94-1.07Z"/></clipPath><linearGradient id="linear-gradient" x1="3.87" y1="-179.63" x2="6.03" y2="-179.63" gradientTransform="matrix(-79.35, 0, 0, 79.35, 483.42, 14396.54)" gradientUnits="userSpaceOnUse"><stop offset="0" stop-color="#ff8f1c"/><stop offset="1" stop-color="#ed2024"/></linearGradient><clipPath id="clip-path-4" transform="translate(0 0)"><path class="cls-1" d="M0,83.2v.08a1,1,0,0,0,.94,1h53.4a1,1,0,0,0,.9-.93C59,46.26,68.42,19.2,84.72,4.31a1.17,1.17,0,0,0,0-1.66,1,1,0,0,0-.34-.25A48.12,48.12,0,0,0,69.9.11C37.16.11,9.51,35.48,0,83.2M116.8,0C106.43,0,74,0,63.14,70.47c-.2,1.32,1.39,1.83,1.76.57C70,53.74,80.26,25.6,93.37,25.6c9.41,0,20.28,14.49,31.74,57.89a.92.92,0,0,0,.86.76H185.8a1.05,1.05,0,0,0,.92-1.18l0-.16C177,34.77,149.39,0,116.8,0Z"/></clipPath><linearGradient id="linear-gradient-2" x1="5.01" y1="-187.69" x2="7.17" y2="-187.69" gradientTransform="matrix(79.35, 0, 0, -79.35, -387.02, -14850.47)" gradientUnits="userSpaceOnUse"><stop offset="0" stop-color="#ff8f1c"/><stop offset="0" stop-color="#ff8f1c"/><stop offset="1" stop-color="#ed2024"/></linearGradient></defs><title>RGB-Gradient-Logo-Horz-R</title><g id="Layer_2" data-name="Layer 2"><g id="Layer_1-2" data-name="Layer 1"><g id="RGB-Gradient-Logo-Horz-R"><g class="cls-2"><g class="cls-3"><path class="cls-4" d="M800,66.73a6.1,6.1,0,1,1-6.1-6.18,6.1,6.1,0,0,1,6.1,6.18m-1,0a5,5,0,1,0-5.05,5.09A5.07,5.07,0,0,0,799,66.73m-4.11.88,1.55,2.22h-1.25l-1.52-2.13H793v2.13h-1.11v-6h2.33a1.83,1.83,0,0,1,2,1.92c0,1.08-.4,1.69-1.34,1.91m-1.85-.9h1.17a.94.94,0,0,0,0-1.88H793Z" transform="translate(0 0)"/><path class="cls-4" d="M424.84,94.09,411.41,60.73h-22.7l25.47,56.89-15.93,39.45h21.88L460,60.73H438Zm41,31.15h20.49V26.68H465.82Zm63.07-66.17a33.81,33.81,0,0,0-35,32.6c0,.39,0,.78,0,1.17A33.8,33.8,0,0,0,527.8,126.5l1.09,0A33.91,33.91,0,0,0,564,93.84c0-.33,0-.67,0-1A34,34,0,0,0,530,59c-.36,0-.72,0-1.08,0m0,48.44a14,14,0,0,1-14.27-13.72c0-.32,0-.63,0-1A14.11,14.11,0,0,1,528,78.05c.28,0,.57,0,.85,0a14.11,14.11,0,0,1,14.27,14c0,.29,0,.57,0,.85a14,14,0,0,1-13.32,14.66c-.31,0-.63,0-.94,0M606.28,78a15.67,15.67,0,0,1,12.31,6.23l15.78-10a33.21,33.21,0,0,0-28.23-15.22c-18.83,0-35.58,13.14-35.58,33.63s16.75,33.78,35.58,33.78a33.22,33.22,0,0,0,28.23-15.23l-15.76-10a15.65,15.65,0,0,1-12.32,6.23,14.2,14.2,0,0,1-14.94-13.42c0-.46,0-.93,0-1.39A14.17,14.17,0,0,1,605,78a11.63,11.63,0,0,1,1.32,0m45.9-50.94A12.28,12.28,0,0,0,639.46,38.9V39a12.47,12.47,0,0,0,12.74,11.91A12.23,12.23,0,0,0,664.64,39a12,12,0,0,0-12.16-11.91h-.29m-10.38,98.15h20.48V60.73H641.81Zm41.53-87.77V60.73H671.57V76.09h11.77v49.15h20.49V76.09h16.83l18.59,41.53-15.92,39.45h21.88l39.88-96.34h-22L749.92,94.09,736.49,60.73H703.83V37.47ZM274,59.07A25.83,25.83,0,0,0,254,67.65V60.73H233.54v96.34H254V117.89A26.18,26.18,0,0,0,274,126.33a31.87,31.87,0,0,0,31.47-32.24c0-.47,0-.93-.05-1.4a31.94,31.94,0,0,0-30.21-33.58c-.41,0-.81,0-1.21,0m-4.29,48.3A14.6,14.6,0,1,1,284.61,92.7a14.9,14.9,0,0,1-14.94,14.67M362.4,67.79a26.12,26.12,0,0,0-20.07-8.58A31.85,31.85,0,0,0,311,91.58c0,.42,0,.84,0,1.26a31.86,31.86,0,0,0,30,33.61l1.3,0a26.19,26.19,0,0,0,20.06-8.6v7.34h20.35V60.73H362.4Zm-15.64,39.59a14.53,14.53,0,1,1,14.81-14.52,14.8,14.8,0,0,1-14.81,14.52" transform="translate(0 0)"/></g><g class="cls-5"><rect class="cls-6" y="101.44" width="186.76" height="84.27"/></g><g class="cls-7"><rect class="cls-8" width="186.8" height="84.27"/></g></g></g></g></g></svg>